<?xml version="1.0" ?><svg data-name="Layer 3" id="Layer_3" viewBox="0 0 48 48" xmlns="http://www.w3.org/2000/svg"><defs><style>.cls-1{fill:#ffd38b;}.cls-2{fill:#e2a950;}.cls-3{fill:#a67c52;}.cls-4{fill:#686886;}.cls-4,.cls-5{opacity:0.5;}.cls-5{fill:#ffeae5;}</style></defs><path class="cls-1" d="M46,24a22.11956,22.11956,0,0,1-3.8986,12.50416,22.37031,22.37031,0,0,1-1.71906,2.17954A21.99981,21.99981,0,1,1,46,24Z"/><path class="cls-2" d="M44.47536,24.64466a1.58081,1.58081,0,0,1-.15351-1.37119L44.99723,21.36a1.56831,1.56831,0,0,0-2.31257-1.85209,1.54557,1.54557,0,0,1-1.91348-.19442l-1.627-1.54513a1.55962,1.55962,0,0,0-2.18978.02049l-2.2716,2.27166c-.01024.01018-.02048.02042-.02048.03067-.91065-1.44277-.97211-2.09767-1.84185-3.06977-.8595-.98235-4.32835-1.35071-4.32835-1.35071L26.08742,10.1349s-.27624,7.23442,0,8.053c.11649.35841,1.043.906,2.0485,1.40882a1.171,1.171,0,0,1,.13514,2.02422l-.83556.55638L24,22.67065A16.405,16.405,0,0,0,27.152,24c.94556.15077,3.00119-1.90493,3.86456-1.69933a3.28447,3.28447,0,0,0,.459.07189l.56715,1.42278-1.60652,2.30232a1.623,1.623,0,0,1-.78787.59351L23.15068,28.881a1.55828,1.55828,0,0,1-.94138.03067L16.46885,27.254a1.49231,1.49231,0,0,0-.52187-.0614l-6.9991.40933a1.49351,1.49351,0,0,1-.5525-.07179l-1.2791-.41941a1.56649,1.56649,0,0,0-2.04651,1.70888c.25581,1.71906.56278,3.71442.62417,3.87811a25.85059,25.85059,0,0,0,2.73214,2.374,1.51109,1.51109,0,0,1,.36835.44L11.46874,40.102a1.55967,1.55967,0,0,0,1.71544.73056l1.39161-.33769.45516-.1793L22.91535,35.88a1.55275,1.55275,0,0,1,.55254-.19443l2.78329-.3786a1.58307,1.58307,0,0,0,.6958-.27623l4.32663-3.08609a1.5598,1.5598,0,0,1,1.55709-.14744L39.09286,34.675l.22525.12035,2.78329,1.70882a21.83051,21.83051,0,0,0,3.72466-9.77208ZM18.917,35.96487a4.26113,4.26113,0,0,1-.52441.19141c-.0819,0-1.49453.08191-2.32328.13306a1.22519,1.22519,0,0,1-.98948-.40644l-1.03608-1.1592a1.2373,1.2373,0,0,1-.05121-1.586c.23539-.29672.47072-.56278.58326-.56278h2.89583a1.21071,1.21071,0,0,1,.86043.35895l1.01215,1.02242A1.22988,1.22988,0,0,1,18.917,35.96487ZM27.09805,32.423l-1.26644.83746s-1.013-.60368-1.06417-.68556a10.88468,10.88468,0,0,1,.44-1.47349l.90047-.38884.89023.40932A.74662.74662,0,0,1,27.09805,32.423ZM43.401,30.907l-1.146.98234-.38884-1.09489-1.361.133a1.05133,1.05133,0,0,1-.17393.01024,1.83008,1.83008,0,0,1-1.72931-1.22792,1.85186,1.85186,0,0,1,.29672-1.71906l.89023-1.12562a1.84086,1.84086,0,0,1,2.30233-.46047l.65434.35787a1.81045,1.81045,0,0,1,.8703,1.08495l.33769,1.16653A1.833,1.833,0,0,1,43.401,30.907Z"/><path class="cls-3" d="M17.5822,8.48286h0a1.73743,1.73743,0,0,1-.82695,1.23007c-.796.416-2.04641,1.06806-2.13777,1.10736-.08785.03779-.694.42037-1.10554.68223a1.6262,1.6262,0,0,0-.59635.72852l-.304.69222a2.06957,2.06957,0,0,0,.35282,2.24644c.33779.32453.6.65713.45933.81017-.22464.24441-1.86779,1.94856-2.8251,2.9404a1.09574,1.09574,0,0,1-1.446.2019L7.17355,17.7916a2.02273,2.02273,0,0,1-.3412-2.67718L8.98928,11.959A1.95343,1.95343,0,0,0,9.26,11.36439,10.808,10.808,0,0,1,9.9429,9.313,25.03123,25.03123,0,0,0,13.116,8.61732c.22084-.20124,1.0389-1.15695,1.51848-1.72252a1.22914,1.22914,0,0,1,.837-.45925l.78644-.06022C17.141,6.3077,17.80141,7.35868,17.5822,8.48286Z"/><path class="cls-3" d="M40.38234,38.6837A21.98535,21.98535,0,0,1,33.5879,43.8a1.105,1.105,0,0,1-.39908-.28648l-1.32-1.33022a1.71586,1.71586,0,0,1-.481-1.187,1.77921,1.77921,0,0,1,.06145-.46047,1.66269,1.66269,0,0,0-.45023-1.66785l-1.11538-1.07447a1.69411,1.69411,0,0,1-.51163-1.21768v-.78786l3.23346.93113s4.06236,1.37119,4.49211,1.37119c.21491,0,1.43259.1637,2.61953.33763A1.5082,1.5082,0,0,1,40.38234,38.6837Z"/><path class="cls-2" d="M18.72276,4.55814l-3.26638.87941a2.32118,2.32118,0,0,0-1.47487,1.2077l-.4331.87081a6.60056,6.60056,0,0,1-2.37157,2.63266l-.34092,1.1725L14.70343,9.5445a.54425.54425,0,0,0,.29477-.20044l2.13486-2.86732Z"/><path class="cls-2" d="M31.5415,7.53184c-.03912.25866-.08186.53557-.12079.78564a1.01279,1.01279,0,0,0,.66271,1.113,15.23469,15.23469,0,0,0,2.27705.70441,10.39932,10.39932,0,0,1,1.79932,1.43447,1.01754,1.01754,0,0,0,1.69295-.70073c.04031-.7848.01565-1.5172-.20324-1.61449-.41862-.186-2.85-1.82158-3.5771-2.31285a.99773.99773,0,0,0-.45764-.1659l-.95851-.1024A1.01687,1.01687,0,0,0,31.5415,7.53184Z"/><path class="cls-3" d="M18.85774,38.67433a.51157.51157,0,0,1-.25082-.95731L22.665,35.43418a2.03192,2.03192,0,0,1,.72347-.25381l2.794-.38072a1.06638,1.06638,0,0,0,.47166-.18837L30.97693,31.528a2.07061,2.07061,0,0,1,2.06749-.19536l6.822,3.19967a.51141.51141,0,1,1-.53561.87137l-.47865-.2768L32.61673,32.262a1.04575,1.04575,0,0,0-1.04524.09893l-4.32785,3.08675a2.07912,2.07912,0,0,1-.92932.36674l-2.777.37822a1.02611,1.02611,0,0,0-.36174.12791l-4.067,2.28784A.50648.50648,0,0,1,18.85774,38.67433Zm-2.86492-1.87064a1.73109,1.73109,0,0,1-1.295-.57958l-1.03625-1.15966a1.75262,1.75262,0,0,1-.07195-2.24137c.4097-.51612.66052-.75994.98628-.75994h2.8959a1.73729,1.73729,0,0,1,1.22411.51062L19.70812,33.596A1.73643,1.73643,0,0,1,19.943,35.748a.51182.51182,0,1,1-.86737-.54361.718.718,0,0,0-.09493-.88835l-1.01226-1.02176a.70473.70473,0,0,0-.49664-.20785h-2.76a4.28658,4.28658,0,0,0-.31877.36973.72887.72887,0,0,0,.033.92833l1.03525,1.15766a.71183.71183,0,0,0,.57758.23682l1.73874-.10292a.48868.48868,0,0,1,.5396.48165.51113.51113,0,0,1-.48165.53961l-1.73374.10292C16.06477,36.80219,16.0288,36.80369,15.99282,36.80369Zm7.1578-7.41111a.51165.51165,0,0,1-.16388-.99628L29.484,26.2064a1.11072,1.11072,0,0,0,.53461-.40371l1.447-2.074-.35374-.88736c-.07-.01149-.1409-.026-.21285-.043a4.89771,4.89771,0,0,0-1.5109.76445,3.9749,3.9749,0,0,1-2.31731.94231,15.97112,15.97112,0,0,1-3.31159-1.38349.51142.51142,0,1,1,.48164-.90234,15.28,15.28,0,0,0,2.99183,1.27557,4.73807,4.73807,0,0,0,1.60683-.79592c.88736-.56359,1.6548-1.04974,2.29633-.89585a2.851,2.851,0,0,0,.38772.06045.51355.51355,0,0,1,.42769.31977l.56758,1.42247a.51532.51532,0,0,1-.05595.48215L30.856,26.39026a2.131,2.131,0,0,1-1.03724.78293L23.3145,29.3656A.512.512,0,0,1,23.15062,29.39258Z"/><path class="cls-3" d="M15.94286,10.64671a.51131.51131,0,0,1-.23483-.9658l.81441-.42069a.99976.99976,0,0,0,.35974-.35724.51182.51182,0,0,1,.86737.5436,2.01736,2.01736,0,0,1-.75645.722l-.81541.42069A.50627.50627,0,0,1,15.94286,10.64671Z"/><path class="cls-3" d="M9.75036,19.822a1.55206,1.55206,0,0,1-.88735-.2818l-.80142-.5391a.51149.51149,0,1,1,.57159-.84839l.80541.54211a.59827.59827,0,0,0,.79142-.12791l2.64008-2.7545a3.23323,3.23323,0,0,0-.25681-.27579,2.55434,2.55434,0,0,1-.47066-2.814l.30678-.69649a2.07589,2.07589,0,0,1,.79142-.95431l.51263-.32826a.51193.51193,0,0,1,.54561.86637l-.50863.32476a1.07691,1.07691,0,0,0-.40071.49564l-.30978.70449a1.54813,1.54813,0,0,0,.24083,1.66279c.24982.24183.99627.9658.47365,1.52839l-2.83594,2.95935A1.69113,1.69113,0,0,1,9.75036,19.822Z"/><path class="cls-3" d="M31.38763,41.50777a.51134.51134,0,0,1-.51163-.51163,2.3244,2.3244,0,0,1,.07894-.59207,1.14831,1.14831,0,0,0-.30877-1.16565L29.529,38.1617a2.21271,2.21271,0,0,1-.66851-1.58585v-.78792a.51173.51173,0,0,1,.65352-.49165l3.23365.93133c.024.00749,1.99055.67151,3.32358,1.07222a.51168.51168,0,0,1-.29379.98028c-1.348-.4052-3.33557-1.07621-3.33557-1.07621l-2.55814-.73647v.10842a1.188,1.188,0,0,0,.35574.84989L31.35365,38.5a2.16194,2.16194,0,0,1,.58658,2.17992,1.26982,1.26982,0,0,0-.041.31627A.51134.51134,0,0,1,31.38763,41.50777Z"/><path class="cls-3" d="M37.794,11.67746a.51192.51192,0,0,1-.48165-.685.51611.51611,0,0,0,.03-.15289,4.82566,4.82566,0,0,0-.032-1.18464c-.65153-.35724-2.64708-1.69626-3.52444-2.28983a.48236.48236,0,0,0-.22483-.08094l-.95831-.10243a.49387.49387,0,0,0-.55559.42719l-.12091.78743a.50422.50422,0,0,0,.32876.5521,19.64963,19.64963,0,0,0,2.07449.673c.25581-.011.49963.14489,1.0992.641a.5114.5114,0,0,1-.65153.78843c-.30178-.24882-.45367-.35924-.52362-.40621a15.20149,15.20149,0,0,1-2.34129-.732A1.52917,1.52917,0,0,1,30.915,8.239l.12091-.78343a1.52808,1.52808,0,0,1,1.67478-1.29106l.95831.10243a1.494,1.494,0,0,1,.6905.25081c1.81468,1.22661,3.25263,2.15993,3.49845,2.26935.44268.19736.57558.74846.50563,2.10747a1.56877,1.56877,0,0,1-.08793.44468A.51225.51225,0,0,1,37.794,11.67746Zm-.35374-1.95658v0Z"/><path class="cls-3" d="M18.518,17.61764a.5116.5116,0,0,1-.022-1.02275c1.54588-.06746,3.12873-.10643,4.70558-.11642h.003a.51163.51163,0,0,1,.003,1.02326c-1.56387.01-3.13372.04846-4.66761.11541Z"/><path class="cls-3" d="M14.77871,17.841a.5116.5116,0,0,1-.038-1.02176q.63405-.048,1.28007-.09043a.52724.52724,0,0,1,.54361.47715.51177.51177,0,0,1-.47765.54411q-.64.042-1.26808.08943C14.80569,17.84048,14.7917,17.841,14.77871,17.841Z"/><path class="cls-3" d="M10.9345,30.81654a.45722.45722,0,0,1-.05895-.00349q-.93833-.10793-1.83867-.22984a.51157.51157,0,0,1-.43768-.57658.51819.51819,0,0,1,.57558-.43768q.89035.12141,1.81668.22783a.5115.5115,0,0,1-.057,1.01976Z"/><path class="cls-3" d="M24,39.86047a.51163.51163,0,0,1,0-1.02326c1.58585,0,3.18169-.06545,4.74255-.19486a.52824.52824,0,0,1,.5516.46816.51131.51131,0,0,1-.46766.5521C27.23765,39.794,25.61383,39.86047,24,39.86047Z"/><path class="cls-3" d="M31.03888,39.43078a.51149.51149,0,0,1-.06495-1.01876c.52362-.06845,1.03924-.1409,1.54987-.21984a.5116.5116,0,1,1,.15589,1.01126c-.51863.07994-1.04224.15339-1.57386.22284A.502.502,0,0,1,31.03888,39.43078Z"/><path class="cls-3" d="M27.62237,9.27721l-.032-.001c-.31577-.02-.63454-.03747-.95431-.05246a.51082.51082,0,0,1-.48664-.53461.51844.51844,0,0,1,.53461-.48765c.32576.015.64853.03348.97029.05346a.51163.51163,0,0,1-.032,1.02226Z"/><path class="cls-3" d="M31.6954,9.68441a.48374.48374,0,0,1-.07095-.005q-.92183-.12665-1.86664-.22383a.51135.51135,0,0,1-.45667-.56159.52488.52488,0,0,1,.5606-.45667q.9638.09967,1.90261.22883a.51154.51154,0,0,1-.069,1.01826Z"/><path class="cls-3" d="M36.33,15.108a.51109.51109,0,0,1-.49664-.39022,31.26374,31.26374,0,0,0-1.20812-3.87568.51143.51143,0,1,1,.95331-.37073,32.03852,32.03852,0,0,1,1.24809,4.00359.51044.51044,0,0,1-.49664.633Z"/><path class="cls-3" d="M33.19931,7.24918a.51288.51288,0,0,1-.44168-.25281A16.25906,16.25906,0,0,0,31.77535,5.498a.51173.51173,0,0,1,.8214-.61056A17.7447,17.7447,0,0,1,33.641,6.47874a.512.512,0,0,1-.44168.77044Z"/><path class="cls-3" d="M10.61274,22.72793l-.022-.0005a.51235.51235,0,0,1-.48964-.53312c.054-1.24709.16288-2.48769.32576-3.68632a.5113.5113,0,1,1,1.01326.1379c-.15788,1.16716-.2648,2.37578-.31577,3.59239A.51228.51228,0,0,1,10.61274,22.72793Z"/><path class="cls-3" d="M37.42524,24.51163A.51134.51134,0,0,1,36.91361,24q0-.53736-.014-1.06922a.51149.51149,0,0,1,.49864-.52462h.013a.51193.51193,0,0,1,.51162.49864q.0135.54484.014,1.0952A.51133.51133,0,0,1,37.42524,24.51163Z"/><path class="cls-3" d="M5.17069,21.94649c-.015,0-.03-.0005-.045-.002a.51141.51141,0,0,1-.46566-.55359q.08094-.93532.21784-1.84866a.51694.51694,0,0,1,.58057-.43068.51106.51106,0,0,1,.43069.58157q-.13041.88135-.20985,1.7857A.51157.51157,0,0,1,5.17069,21.94649Z"/><path class="cls-3" d="M5.2936,28.2669a.5121.5121,0,0,1-.50663-.44768A30.6916,30.6916,0,0,1,4.54815,24c0-.19386,0-.37673.011-.57009a.49933.49933,0,0,1,.53861-.48264.51073.51073,0,0,1,.48265.5386c-.009.17438-.009.33926-.009.51413a29.79078,29.79078,0,0,0,.23083,3.69132.51185.51185,0,0,1-.44367.57158A.56631.56631,0,0,1,5.2936,28.2669Z"/><path class="cls-3" d="M42.8333,21.999a.511.511,0,0,1-.50863-.46866q-.08244-.97879-.22883-1.9321a.51153.51153,0,0,1,1.01126-.15489q.15139.987.23683,2.001a.5107.5107,0,0,1-.46666.5526A.43125.43125,0,0,1,42.8333,21.999Z"/><path class="cls-3" d="M41.96893,16.99909a.51174.51174,0,0,1-.49464-.37972,26.162,26.162,0,0,0-1.84166-4.90394.51124.51124,0,1,1,.91534-.45566,27.18762,27.18762,0,0,1,1.9156,5.09579.51138.51138,0,0,1-.36273.626A.50379.50379,0,0,1,41.96893,16.99909Z"/><path class="cls-4" d="M36.4803,5.89179A21.98979,21.98979,0,0,1,5.89167,36.48024,21.994,21.994,0,1,0,36.4803,5.89179Z"/><circle class="cls-5" cx="12.23256" cy="14.27907" r="6.65116"/></svg>