<?xml version="1.0" ?><svg viewBox="0 0 64 64" xmlns="http://www.w3.org/2000/svg"><title/><g id="Planet"><path d="M54.9,24.3481a16.8006,16.8006,0,0,1-1.17,1.35c-1.94,2.02-7.74,7.18-19.81,11.57s-19.84,4.17-22.62,3.86a14.512,14.512,0,0,1-1.76-.28c-.07-.2-.15-.4-.22-.6l-.21-.6c-.19-.57-.37-1.16-.53-1.79a24.0716,24.0716,0,0,1-.69-7.11l.03-.45a24.13,24.13,0,0,1,41.43-15.06c.12.11.22.21.32.32a23.4655,23.4655,0,0,1,4.04,5.88q.42.87.75,1.71c.07.2.15.4.22.6h.01Z" style="fill:#febf63"/><path d="M55.17,27.0781c-2.03,2.12-8.1,7.54-20.57,12.07-9.4,3.42-16.34,4.12-20.44,4.12a28.32,28.32,0,0,1-3.08-.15,1.0086,1.0086,0,0,1-.79-.56q-.42-.87-.75-1.71a14.512,14.512,0,0,0,1.76.28c2.78.31,10.55.53,22.62-3.86s17.87-9.55,19.81-11.57a16.8006,16.8006,0,0,0,1.17-1.35c.18.57.36,1.16.52,1.79A.9861.9861,0,0,1,55.17,27.0781Z" style="fill:#febf63"/><path d="M55.5654,32.3048a1.0023,1.0023,0,0,0-1.082.1113A67.2979,67.2979,0,0,1,35.8008,42.4483a67.2689,67.2689,0,0,1-20.7627,4.3135,1,1,0,0,0-.7119,1.6807A24.1432,24.1432,0,0,0,56.1094,33.2462,1.0015,1.0015,0,0,0,55.5654,32.3048Z" style="fill:#febf63"/><path d="M56.08,33.6981c-.11.1-.23.19-.34.28a69.4373,69.4373,0,0,1-19.26,10.35,69.1547,69.1547,0,0,1-21.4,4.43c-.14,0-.29.01-.43,0h-.01c-.17.01-.32.01-.48.01-7.18,0-11.83-1.94-13.13-5.51-1.32-3.64,1.12-8.24,6.89-12.96l-.03.45a24.0716,24.0716,0,0,0,.69,7.11c.16.63.34,1.22.53,1.79a7.0472,7.0472,0,0,0-.62.9,7.7571,7.7571,0,0,0,1.05.3,14.512,14.512,0,0,0,1.76.28c2.78.31,10.55.53,22.62-3.86s17.87-9.55,19.81-11.57a16.8006,16.8006,0,0,0,1.17-1.35,8,8,0,0,0,.61-.9,7.7571,7.7571,0,0,0-1.05-.3q-.33-.84-.75-1.71a23.4655,23.4655,0,0,0-4.04-5.88c-.1-.11-.2-.21-.32-.32,7.47-.1,12.3,1.85,13.62,5.5C64.29,24.3781,61.85,28.9781,56.08,33.6981Z" style="fill:#ede682"/><path d="M62.97,20.7381c-1.32-3.65-6.15-5.6-13.62-5.5a23.9843,23.9843,0,0,0-6.14-4.62,33.6741,33.6741,0,0,1,.94,22.06,29.2684,29.2684,0,0,1-.97,2.77,33.1918,33.1918,0,0,1-2.53,5.06,31.4441,31.4441,0,0,1-2.1,3.03,33.53,33.53,0,0,1-15.12,11.03,23.644,23.644,0,0,0,8.54,1.58,24.199,24.199,0,0,0,24.11-22.45C61.85,28.9781,64.29,24.3781,62.97,20.7381Zm-7.46,2.71a8,8,0,0,1-.61.9l-.21-.6h-.01c-.07-.2-.15-.4-.22-.6A7.7571,7.7571,0,0,1,55.51,23.4481Z" style="fill:#0f3460;opacity:0.15"/><path d="M62.9677,20.736c-1.3247-3.6461-6.1549-5.5892-13.6154-5.5027A24.123,24.123,0,0,0,7.93,30.2991C2.16,35.0229-.2943,39.6165,1.0322,43.2623c1.2969,3.5679,5.9443,5.5108,13.13,5.5108.1579,0,.3207-.0035.4813-.0054A24.1271,24.1271,0,0,0,56.07,33.7C61.8405,28.9761,64.2943,24.3823,62.9677,20.736ZM9.8886,30.8547v-.002A22.1432,22.1432,0,0,1,48.2109,16.9181c.3969.4247.7734.8675,1.1348,1.3226a22.0662,22.0662,0,0,1,2.564,4.0706c.3473.7264.64,1.42.895,2.1205.1716.4721.3241.9629.4708,1.4691.0191.0658.0376.1332.0563.2l-.0077.0078-.04.0384c-.1362.1338-.2834.2755-.4446.4262-.0536.05-.1162.1058-.1726.1575-.1289.1186-.2593.2382-.4032.3656-.08.0708-.17.1471-.2549.2205-.1344.1166-.2691.2332-.4156.356-.1016.0851-.213.1747-.3205.2627-.1462.12-.2932.2395-.45.3641-.12.0946-.2482.1929-.3743.29-.1621.1252-.3261.251-.499.38-.138.1031-.2837.2089-.4287.3144-.1787.13-.3607.2611-.55.3946-.155.1092-.3164.22-.4788.3316q-.2974.2037-.611.4118c-.1721.1141-.3489.2291-.5286.3451-.2184.1407-.4436.2829-.6735.426-.1889.1177-.3808.2359-.5776.355-.24.1452-.4886.2918-.74.4388-.2064.1206-.414.2412-.6285.3629-.2618.1485-.5342.2981-.8082.4479-.2242.1226-.4477.245-.68.3683-.2867.1521-.586.3049-.8854.4576-.239.122-.4749.2437-.7221.366-.3187.1578-.6527.3157-.9853.4737-.2482.118-.491.2358-.747.3537-.3584.165-.7348.33-1.1087.4944-.252.111-.4963.2222-.7555.333-.4259.1819-.8724.3625-1.3177.5431-.2266.0919-.443.1846-.6747.2761q-1.0314.4074-2.1293.8081-1.0976.3991-2.1461.747c-.26.0867-.5084.1618-.7641.2441-.4311.1387-.8641.28-1.2825.4062-.3019.0915-.5917.1721-.887.2575-.3564.1031-.7158.2088-1.0626.3035-.3089.0843-.6067.1594-.9079.2372-.3171.082-.6365.1659-.9451.241-.3026.0736-.5954.14-.89.2068-.2913.0665-.5837.134-.8669.1945-.2929.0626-.5772.1193-.8613.1757-.2666.053-.5331.1061-.7919.1538-.2808.0519-.5545.0992-.8262.1453-.2469.0418-.4925.0828-.7319.12-.2651.0413-.5246.0794-.78.1153-.2278.032-.4526.0625-.6729.09-.25.0318-.4971.0615-.7379.0885q-.3129.0348-.6143.0644c-.2344.0231-.4663.0451-.6908.0638-.1906.0158-.3754.0294-.5588.0423-.2166.0152-.4322.03-.6387.0415-.1754.01-.3435.0168-.5117.0239-.1974.0084-.3957.0169-.583.0221-.1585.0043-.3081.0061-.4593.0082-.1786.0026-.36.0058-.5279.0057-.1452,0-.28-.0025-.4173-.0044-.1563-.002-.317-.0032-.4633-.0073-.13-.0036-.2474-.0094-.37-.0144-.1371-.0056-.28-.01-.4075-.0173-.1161-.0064-.2176-.0144-.3252-.0218-.1116-.0076-.2309-.0145-.3334-.0229-.0264-.0583-.0532-.117-.0789-.1751-.2147-.4852-.4146-.963-.5888-1.4412-.2539-.6987-.4766-1.4209-.6787-2.2075l-.0014-.0034a22.0782,22.0782,0,0,1-.6529-4.8646q-.0175-.818.0263-1.6359Zm-1.1275,9.26c.0346-.0511.08-.11.1184-.1639.07-.0994.1422-.2.2248-.3077.0673.2041.1382.4061.21.6064l.001.001q.1093.3.2275.6c-.13-.0289-.2465-.059-.3622-.0893-.0669-.0174-.1434-.0342-.2056-.052-.182-.052-.3459-.105-.4878-.1578C8.5626,40.4185,8.6544,40.272,8.7611,40.1143Zm30.8053,12.69a22.0743,22.0743,0,0,1-22.16-4.1494l.0453-.0042c.1582-.0114.3232-.032.4828-.045.6257-.0514,1.257-.11,1.9012-.1861.289-.0341.5845-.0786.8769-.1176.5267-.07,1.0544-.1429,1.5911-.2289.3316-.0531.6667-.1137,1.0018-.1728.51-.09,1.0217-.1837,1.5388-.2871q.5262-.1051,1.0563-.2206.7733-.1667,1.5539-.353c.3551-.0846.7094-.17,1.0665-.26.5361-.1357,1.0741-.2812,1.6139-.43.3438-.0949.6863-.1868,1.0313-.2869.5893-.171,1.18-.3547,1.7718-.5408.2959-.093.5907-.18.8869-.2769q1.33-.4344,2.66-.9151,1.3305-.4839,2.6285-1.0083c.2843-.1141.5612-.2347.8429-.3514.5778-.2394,1.1532-.48,1.7194-.73.3266-.144.6459-.2925.9682-.44.5111-.2334,1.0187-.4686,1.5185-.71.33-.1593.6548-.3209.98-.4834q.7224-.3612,1.4256-.7316.4749-.2505.9413-.5043c.4672-.2554.924-.5144,1.3767-.7758.2907-.1677.5826-.3342.867-.5042.4734-.2831.9314-.5706,1.3867-.8594.2416-.1533.4894-.3044.7256-.4592.5587-.3661,1.0965-.7372,1.6235-1.1108.1154-.0818.2392-.1617.353-.2439.0139-.01.0292-.02.043-.03A22.08,22.08,0,0,1,39.5664,52.8038Zm14.917-20.3867A67.296,67.296,0,0,1,35.8007,42.4493c-1.8281.6651-3.66,1.26-5.4746,1.7792-1.56.4467-3.1026.8262-4.6237,1.1594a55.9064,55.9064,0,0,1-10.6643,1.3749l-.003.0005c-6.6625.139-11.1036-1.3776-12.124-4.1846-.9062-2.4941.8926-5.9365,4.9648-9.6064.0063.1564.031.3119.04.4682.0272.4545.0639.908.117,1.361.0289.2464.0627.4918.0993.7376.0659.443.1461.8842.2368,1.3247.031.15.047.3024.0809.4522l-.0151.0169-.0188.021q-.18.1971-.3609.4071c-.0375.0436-.074.0885-.1113.1327-.0893.1057-.1775.212-.2647.321-.0451.0564-.0883.1131-.1325.17-.0781.1008-.1544.2018-.2289.3042-.0453.0624-.0889.1244-.1326.1872-.0693.0995-.1353.1989-.2.2991-.0416.0647-.0825.1291-.1218.194-.0611.1009-.1169.2012-.1714.3018-.034.0629-.0692.1256-.1.1882-.054.1086-.1.2158-.1441.323-.0217.0526-.0473.1056-.0665.1577a3.33,3.33,0,0,0-.1384.4662,1,1,0,0,0,.36.9912,4.0737,4.0737,0,0,0,.9264.5255c.1764.0748.362.1434.554.2065.027.0088.0561.0157.0834.0244a11.4781,11.4781,0,0,0,1.2086.3071c.5894.1185,1.1813.2014,1.709.2573l.0048,0q.2667.0291.59.0561c.164.0135.35.025.5358.0365.062.0037.1147.0086.1791.012.1889.01.3989.0177.6085.0249.0773.0027.1456.0069.2257.009.2079.0057.4358.0072.6625.009.0924.0007.1749.0037.2705.0037l.02,0c.0877,0,.1831-.0023.2734-.0029.2221-.0018.45-.0052.6876-.0113.1308-.0034.2645-.0081.4-.013.2268-.0081.461-.0189.701-.0315.133-.007.2628-.0131.4-.0215.3661-.0226.7433-.05,1.1378-.084.096-.0084.1984-.02.2961-.0289.3185-.03.6445-.0629.9808-.101.1577-.0178.3187-.0377.48-.0575q.46-.0566.942-.1248c.1594-.0224.3161-.0436.479-.068.47-.0705.9517-.1474,1.45-.2353.0862-.0152.1775-.0338.2646-.05q.6411-.1158,1.3122-.2523c.1816-.0369.3665-.0766.5514-.1159q.5808-.1236,1.1832-.2635c.1819-.0423.3614-.083.5463-.1275.5748-.1384,1.16-.2848,1.7625-.4466.0528-.0142.1081-.0308.161-.0451q.835-.2262,1.7074-.4859c.1977-.0586.3987-.1208.5991-.182q.7035-.2148,1.4293-.4516c.2035-.0664.4053-.1313.6115-.2.6753-.226,1.36-.4617,2.0628-.7174q1.1686-.4251,2.2628-.86a72.5816,72.5816,0,0,0,7.4991-3.4585c.1014-.0542.2-.108.3-.1622a49.8326,49.8326,0,0,0,8.1675-5.4288c.18-.15.3412-.29.5046-.4321.0822-.0712.1741-.1476.2522-.2164.6812-.6019,1.2048-1.1154,1.5862-1.5128l.0023-.0032a9.76,9.76,0,0,0,2.5807-3.8865,1,1,0,0,0-.36-.9912,3.3554,3.3554,0,0,0-.4062-.2686c-.0455-.0259-.0962-.0487-.1437-.0736-.1057-.0553-.2128-.11-.3275-.1594-.0611-.0266-.1251-.0508-.1883-.0758-.11-.0436-.2205-.0859-.3358-.1252-.0689-.0234-.1386-.0455-.2091-.0675-.1164-.0362-.2336-.0708-.3534-.1032-.0724-.02-.1443-.0387-.2176-.057-.1233-.0307-.2468-.0593-.3716-.0864-.0709-.0153-.1409-.0312-.212-.0455-.1334-.0268-.2658-.051-.3987-.0741-.0619-.0109-.1234-.0228-.185-.0328-.1549-.0252-.3071-.0475-.458-.0683-.0379-.0053-.0769-.0117-.1145-.0167l-.0122-.0018c-.0714-.1386-.1579-.2673-.2319-.4043-.2125-.3942-.4334-.7824-.6666-1.1627-.13-.212-.2618-.4218-.398-.6294-.25-.3807-.5127-.7512-.7833-1.1162-.0932-.1258-.1742-.2608-.27-.3846,5.4786.1958,9.0684,1.6777,9.9756,4.1719C62.1093,24.2267,59.7021,28.235,54.4834,32.4171Zm-.0264-9.2688c.13.0289.2466.059.3622.0892.0669.0175.1435.0343.2057.052.1819.0521.3459.1051.4878.1579-.0756.1328-.1677.28-.2749.438-.03.0447-.0705.0965-.1033.143-.0741.105-.1511.2123-.239.3269-.0624-.1878-.1272-.3731-.1936-.5572-.0058-.016-.0106-.033-.0164-.049l-.001-.0009Q54.5752,23.4476,54.457,23.1483Z" style="fill:#0f3460"/></g></svg>