<?xml version="1.0" ?><svg data-name="Layer 3" id="Layer_3" viewBox="0 0 48 48" xmlns="http://www.w3.org/2000/svg"><defs><style>.cls-1{fill:#75b3ff;}.cls-2,.cls-6{fill:#5979ff;}.cls-3,.cls-7{fill:#e1e8ff;}.cls-4{fill:#60a6e7;}.cls-5{fill:#a8c4ff;}.cls-6{opacity:0.38;}.cls-7{opacity:0.53;}</style></defs><path class="cls-1" d="M46,24a22.21475,22.21475,0,0,1-1.84,8.8c-.12.27-.25.53-.37.8-.13.24-.25.48-.38.72s-.26.48-.4.72c-.17.28-.34.57-.51.84-.13.2-.26.4-.4.59-.13.19-.26.37006-.39.55-.07.1-.14.19-.21.29l-.12.15a1.738,1.738,0,0,0-.13.15c-.16.21-.33.42-.51.62-.05.06-.1.13-.16.19-.22.26-.46.52-.7.77-.32.34-.65.68-1,.99-.2.18-.41.36-.62.54-.22.2-.46.39-.69.58a4.96313,4.96313,0,0,1-.46.34l-.42.3q-.285.21-.57.39c-.07.06-.14.1-.21.15-.36.23-.71.45-1.09.65-.17.1-.33.19-.51.28-.17.09-.34.17-.51.26-.24.13-.48.25-.73.36a20.19522,20.19522,0,0,1-2.04.82c-.52.17-1.05.33-1.59.47a21.83279,21.83279,0,0,1-4.38.65c-.34.02-.69.03-1.03.03h-.04c-.38,0-.75-.01-1.12-.03-.15-.01-.31-.01-.46-.03-.29-.02-.59-.04-.87994-.08q-.34506-.02994-.69-.09c-.15-.02-.31-.04-.46-.07a4.54047,4.54047,0,0,1-.51-.09c-.12-.02-.23-.04-.35-.07-.29-.06-.58-.13-.86-.19-.1-.03-.19-.05-.29-.08-.26-.07-.51-.14-.77-.21a22.33414,22.33414,0,0,1-2.92-1.13c-.16-.08-.32-.15-.49-.24-.24-.12-.48-.24-.72-.38-.32-.17-.62994-.35-.93994-.54a.15549.15549,0,0,1-.08-.06c-.36-.21-.72-.45-1.07-.7q-.54-.375-1.05-.78c-.34-.27-.68-.55-1-.84-.33-.29-.64-.59-.95-.9A22.0021,22.0021,0,0,1,5.69,11.8c.04-.07.09-.14.13-.2.38-.55.78-1.08,1.2-1.6.19-.22.37-.44.56-.66.04-.04.08-.09.13-.14.23-.25.46-.49.69995-.73A21.839,21.839,0,0,1,15.78,3.6c.31995-.14.65-.25995.98-.37.17-.05.33-.1.5-.16.56-.19,1.13-.33,1.7-.47a1.37279,1.37279,0,0,1,.17-.04,19.3724,19.3724,0,0,1,3.63-.52c.33-.02.66-.03,1-.03.08,0,.16-.01.24-.01.12,0,.23,0,.34.01.35,0,.71.02,1.05.04a18.61,18.61,0,0,1,2.81.36,21.50929,21.50929,0,0,1,2.45.63c.21.07.42.14.63.22.16.06.33.11.49.17q.63.24006,1.23.51a5.51929,5.51929,0,0,1,.55.26c.39.19.77.39,1.15.6.1.05.19.1.29.15.33.19.65.39.97.59a6.18567,6.18567,0,0,1,.53.36,13.38817,13.38817,0,0,1,1.29.95c.29.23.57.47.84.71a1.89374,1.89374,0,0,0,.21.19l.01.01c.27.25.54.5.8.77.14.14.27.27.4.41.02.02.03.04.05.06a.00979.00979,0,0,0,.01.01c.17.18.34.36.5.55.11.12.22.25.33.38a21.81053,21.81053,0,0,1,4.71,10.11c.03.15.05.3.07.45a.77538.77538,0,0,1,.02.15,5.06264,5.06264,0,0,1,.09.54v.02a.01379.01379,0,0,0,0,.02c.06.45.11.91.13,1.37.02.35.03.7.04,1.05C46,23.76,46,23.88,46,24Z"/><path class="cls-2" d="M12.37445,31.37764a8.75973,8.75973,0,0,0,1.63722-.04093c.99256-.0921,1.98512-.174,2.97768-.266a6.27355,6.27355,0,0,1,2.39443.10232,8.0722,8.0722,0,0,1,2.59907,1.78047,13.49969,13.49969,0,0,0,3.14141,1.96466,2.73952,2.73952,0,0,1,.8186.48093.77772.77772,0,0,1,.174.88,5.97189,5.97189,0,0,1-3.62234.55256c-1.26884-.07162-2.52745-.14325-3.79629-.21488a6.99723,6.99723,0,0,1-3.85768-1.00279c-1.20745-.9107-1.81117-2.58885-3.22327-3.11071a7.41252,7.41252,0,0,1-.95163-.31721c-.82884-.42977-.50139-1.33024.36838-1.17675A13.54014,13.54014,0,0,0,12.37445,31.37764Z"/><path class="cls-3" d="M22.6275,4.5171a28.739,28.739,0,0,1-6.07815-.58326,2.14812,2.14812,0,0,1-.76744-.33767q.47582-.19954.98232-.36838l.49117-.15349a16.92814,16.92814,0,0,1,1.70884-.47069.95735.95735,0,0,1,.16372-.04093,18.96085,18.96085,0,0,1,3.63257-.52187A21.918,21.918,0,0,1,34.98847,4.94687,23.10453,23.10453,0,0,1,38.621,7.55618c.06139.07162.14325.133.20465.19442l.01023.01023a19.48,19.48,0,0,1,1.76,1.80093A12.61177,12.61177,0,0,1,37.7001,9.0706a55.99875,55.99875,0,0,1-6.04745-2.47629A28.49346,28.49346,0,0,0,22.6275,4.5171Z"/><path class="cls-3" d="M19.79308,12.13014c-2.21024.31721-4.43071-.307-6.65118-.60372a22.28109,22.28109,0,0,0-7.27537.23535c-.05116.02046-.12279.02046-.17395.04093.08186-.14326.17395-.27628.266-.4093.25582-.38884.54233-.75722.82884-1.11536A22.8964,22.8964,0,0,1,8.40421,8.46688c.79814.16372,1.586.45023,2.40466.62418a16.75467,16.75467,0,0,0,4.17489.07163A16.96031,16.96031,0,0,1,23.0982,10.4213a1.51986,1.51986,0,0,1,.55256.37861.5425.5425,0,0,1,.05117.62418c-.16373.21489-.49117.21489-.76745.20466A20.68749,20.68749,0,0,0,19.79308,12.13014Z"/><path class="cls-4" d="M17.43918,40.55644a.49918.49918,0,0,1-.15388-.024c-.81541-.25781-1.61883-.52612-2.42325-.81441-1.20013-.4172-2.3483-.85987-3.50646-1.351-1.18114-.50663-2.33331-1.04474-3.42651-1.60034a.5117.5117,0,0,1,.46366-.91234c1.07322.54561,2.2054,1.07422,3.36456,1.57136,1.13518.48165,2.26236.91634,3.4455,1.32754.79743.28579,1.58885.5501,2.39027.80392a.51149.51149,0,0,1-.15389.99927Z"/><path class="cls-4" d="M29.10573,42.89975c-.018,0-.035-.001-.053-.0025-1.09721-.11242-2.09648-.23733-3.05379-.38222-.50763-.079-.95131-.1484-1.394-.22734a.5116.5116,0,1,1,.17987-1.00727c.43569.07744.87137.14589,1.30805.21384,1.00028.15189,1.98257.27431,3.06378.38473a.51173.51173,0,0,1-.051,1.02076Z"/><path class="cls-4" d="M36.13451,42.33672c-.42975.28654-.8595.5526-1.30974.79817-.24563.01024-.50145.01024-.76744.01024-.37866,0-.76744,0-1.19726-.01024a.50666.50666,0,0,1-.50138-.52187.51787.51787,0,0,1,.51163-.50139h.01024c1.07441.02042,1.96464.02042,2.80372-.02049A.48236.48236,0,0,1,36.13451,42.33672Z"/><path class="cls-4" d="M41.49638,37.31255c-.23533.3172-.4809.62417-.747.92089q-.75209,0-1.53489-.03067a68.64852,68.64852,0,0,1-8.11443-.7572.49278.49278,0,0,1-.42975-.573.5051.5051,0,0,1,.573-.42981,69.00045,69.00045,0,0,0,8.00183.73678c.66514.02048,1.29955.03066,1.934.03066A.53379.53379,0,0,1,41.49638,37.31255Z"/><path class="cls-4" d="M45.82,21.19a.0098.0098,0,0,1-.01.01.27659.27659,0,0,1-.09.01.63252.63252,0,0,1-.26-.07c-1.34-.79-2.86-1.58-4.64-2.43a.511.511,0,0,1-.25-.68.51827.51827,0,0,1,.69-.24005c1.65.79,3.09,1.52,4.37,2.26h.01c.03.15.05.3.07.45a.77538.77538,0,0,1,.02.15A5.06264,5.06264,0,0,1,45.82,21.19Z"/><path class="cls-4" d="M38.95859,17.83041a.5075.5075,0,0,1-.20385-.04247q-.81542-.35374-1.66879-.7a.5115.5115,0,1,1,.38372-.94831q.86487.35,1.69277.71a.51148.51148,0,0,1-.20385.98079Z"/><path class="cls-4" d="M34.91652,16.21308a.50317.50317,0,0,1-.17787-.032c-2.61211-.9703-5.43606-1.86016-8.39492-2.64559a.51167.51167,0,1,1,.26181-.98928c2.99084.79393,5.84677,1.69427,8.48885,2.67556a.51157.51157,0,0,1-.17787.99128Z"/><path class="cls-4" d="M8.75248,31.0913a.51127.51127,0,0,1-.20785-.044q-1.2501-.55609-2.42524-1.12568a.51172.51172,0,1,1,.44767-.92033q1.15566.56135,2.39327,1.11069a.51168.51168,0,0,1-.20785.97929Z"/><path class="cls-4" d="M4.76137,29.18219a.51187.51187,0,0,1-.23483-.057q-.77194-.39871-1.50191-.80142a.51165.51165,0,0,1,.49364-.89635q.718.39571,1.47793.78843a.51166.51166,0,0,1-.23483.9663Z"/><path class="cls-4" d="M23.39487,28.001a.51717.51717,0,0,1-.13091-.017c-.73247-.19336-1.46593-.39321-2.2044-.59407L20.457,27.2256a.51148.51148,0,1,1,.2678-.98728l.60357.16438c.73546.20036,1.46593.39921,2.1974.59207a.51166.51166,0,0,1-.1309,1.00627Z"/><path class="cls-4" d="M36.43142,24.46061a.514.514,0,0,1-.15389-.02349c-1.1032-.34774-2.24737-.70548-3.43251-1.06273a.51149.51149,0,0,1,.29579-.97929c1.18914.35824,2.3373.717,3.4445,1.06573a.5118.5118,0,0,1-.15389.99978Z"/><path class="cls-4" d="M8.78246,23.68267a.50906.50906,0,0,1-.15989-.02548c-1.82567-.60106-3.59639-1.21412-5.26418-1.82268a.51147.51147,0,1,1,.34974-.9613c1.6588.60456,3.41953,1.21462,5.23421,1.81168a.51177.51177,0,0,1-.15988.99778Z"/><path class="cls-5" d="M18.51041,12.72911a22.17185,22.17185,0,0,1-3.7343-.42469c-.56659-.09743-1.13417-.19486-1.70176-.27081a.51166.51166,0,0,1,.1359-1.01426c.57958.07744,1.15916.17687,1.73974.2763a17.69022,17.69022,0,0,0,4.185.38922.51183.51183,0,1,1,.06994,1.02126Q18.85715,12.72935,18.51041,12.72911Z"/><path class="cls-5" d="M23.31493,12.12954a.51167.51167,0,0,1-.07095-1.01826,1.18753,1.18753,0,0,0-.34775-.21934,16.26994,16.26994,0,0,0-7.88529-1.21812l-.72047.037a19.45631,19.45631,0,0,1-2.4832.031.51147.51147,0,1,1,.07394-1.02026,18.90555,18.90555,0,0,0,2.3533-.03247l.72647-.03748a17.24565,17.24565,0,0,1,8.355,1.30706,1.97581,1.97581,0,0,1,.74146.53061.98358.98358,0,0,1-.66952,1.63532A.51236.51236,0,0,1,23.31493,12.12954Z"/><path class="cls-4" d="M26.19784,5.48136a.53063.53063,0,0,1-.09693-.009,28.0821,28.0821,0,0,0-3.50546-.44468c-.34275-.02049-.6875-.03548-1.03325-.048a.51145.51145,0,1,1,.036-1.02226c.35374.0125.70849.02748,1.06023.049a29.04072,29.04072,0,0,1,3.63437.46067.51165.51165,0,0,1-.09493,1.01426Z"/><path class="cls-4" d="M40.93,9.94c-.01.01-.02.02-.03.02a.46172.46172,0,0,1-.3.11h-.03a11.44524,11.44524,0,0,1-1.94-.25,9.81684,9.81684,0,0,1-1.07-.26,29.973,29.973,0,0,1-4.11-1.61c-.66-.31-1.32-.61-1.99-.88-.73-.3-1.46-.57-2.2-.8a.50371.50371,0,0,1-.34-.63V5.63a.52962.52962,0,0,1,.65-.34c.76.25,1.53.52,2.28.83.68.28,1.35.59,2.03.89a27.3848,27.3848,0,0,0,3.96,1.57c.08.02.17.05.25.07A11.77309,11.77309,0,0,0,40.06,9a.01877.01877,0,0,0,.03,0,.00979.00979,0,0,0,.01.01c.17.18.34.36.5.55C40.71,9.68,40.82,9.81,40.93,9.94Z"/><path class="cls-6" d="M45.99,23.65V24a23.02263,23.02263,0,0,1-.17,2.77,22.16,22.16,0,0,1-1.66,6.03c-.12.27-.25.53-.37.8-.13.24-.25.48-.38.72s-.26.48-.4.72c-.17.28-.34.57-.51.84-.13.2-.26.4-.4.59-.13.19-.26.37006-.39.55-.07.1-.14.19-.21.29l-.12.15a7.83053,7.83053,0,0,1-.63.77c-.05.06-.11.13-.17.19-.22.26-.46.52-.7.77-.32.34-.65.68-1,.99-.2.18-.41.36-.62.54-.22.2-.46.39-.69.58a4.96313,4.96313,0,0,1-.46.34c-.32.25-.65.48-.98.7-.07.05-.15.1-.22.13995-.36.23-.71.45-1.09.65-.17.1-.33.19-.51.28-.17.09-.34.17-.51.26-.24.13-.48.25-.73.36a20.19522,20.19522,0,0,1-2.04.82c-.52.17-1.05.33-1.59.47a21.83279,21.83279,0,0,1-4.38.65c-.34.02-.69.03-1.03.03h-.04c-.38,0-.75-.01-1.12-.03-.15-.01-.31-.01-.46-.03-.29-.02-.59-.04-.87994-.08q-.34506-.02994-.69-.09c-.15-.02-.31-.04-.46-.07a4.54047,4.54047,0,0,1-.51-.09c-.12-.02-.23-.04-.35-.07-.29-.06-.58-.13-.86-.19-.1-.03-.19-.05-.29-.08-.26-.07-.51-.14-.77-.21a22.33414,22.33414,0,0,1-2.92-1.13c-.16-.08-.32-.15-.49-.24-.24-.12-.48-.24-.72-.38-.32-.17-.62994-.35-.93994-.54a.15549.15549,0,0,1-.08-.06c-.36-.21-.72-.45-1.07-.7q-.54-.375-1.05-.78c-.34-.27-.68-.55-1-.84-.33-.29-.64-.59-.95-.9a21.82433,21.82433,0,0,1-2.5-3.01A21.84238,21.84238,0,0,0,16.56,40.3h.02c.41.03.83.05,1.25.06h.01c.17.01.35.01.52.01A21.99881,21.99881,0,0,0,38.63,9.82c-.08-.19-.16-.38-.25-.57-.09-.2-.18-.4-.28-.6h-.01A21.202,21.202,0,0,0,36.47,5.89c.01,0,.01.01.02.01A22.50456,22.50456,0,0,1,40.06,9a6.47922,6.47922,0,0,1,.5.56,4.02465,4.02465,0,0,1,.34.4,21.81623,21.81623,0,0,1,4.73,10.09c.03.15.06.3.08.45a.77538.77538,0,0,1,.02.15c.03.18.06.36.08.55l.01.01a.01379.01379,0,0,0,0,.02c.05.45.1.91.13,1.37C45.97,22.95,45.98,23.3,45.99,23.65Z"/><circle class="cls-7" cx="12.22097" cy="14.27899" r="6.65118"/></svg>