<?xml version="1.0" encoding="iso-8859-1"?>
<!-- Generator: Adobe Illustrator 19.0.0, SVG Export Plug-In . SVG Version: 6.00 Build 0)  -->
<svg version="1.1" id="Layer_1" xmlns="http://www.w3.org/2000/svg" xmlns:xlink="http://www.w3.org/1999/xlink" x="0px" y="0px"
	 viewBox="0 0 512 512" style="enable-background:new 0 0 512 512;" xml:space="preserve">
<path style="fill:#FFD41D;" d="M193.306,168.054v-62.417c0-9.893,8.02-17.914,17.913-17.914h89.563
	c9.893,0,17.913,8.021,17.913,17.914v62.417H193.306z"/>
<path style="fill:#0068FF;" d="M140.263,278.988c25.945,0,54.482,24.139,63.416,53.641l7.171,23.682h191.436V209.85
	c0-23.084-18.712-41.796-41.796-41.796H151.51c-23.084,0-41.796,18.712-41.796,41.796v69.138H140.263z"/>
<path style="fill:#10BAFC;" d="M480.457,425.967l21.094-69.657H210.85l-7.171-23.682c-8.934-29.502-37.47-53.641-63.416-53.641
	H10.449l44.511,146.98c8.934,29.502,37.47,53.641,63.415,53.641h298.666C442.986,479.608,471.523,455.469,480.457,425.967z"/>
<path style="fill:#1EB615;" d="M220.473,87.724v-45.18c0-5.606,4.544-10.151,10.149-10.151h50.754c5.605,0,10.15,4.545,10.15,10.151
	v45.18C291.527,87.724,220.473,87.724,220.473,87.724z"/>
<g>
	<rect x="109.714" y="222.563" style="fill:#FFFFFF;" width="104.49" height="56.424"/>
	<rect x="297.796" y="222.563" style="fill:#FFFFFF;" width="104.49" height="56.424"/>
	<polygon style="fill:#FFFFFF;" points="103.555,361.012 65.938,361.012 52.006,315.907 89.622,315.907 	"/>
	<polygon style="fill:#FFFFFF;" points="170.428,361.012 132.812,361.012 118.879,315.907 156.495,315.907 	"/>
</g>
<path d="M509.943,350.084c-1.971-2.656-5.083-4.222-8.392-4.222h-88.816V209.85c0-28.808-23.437-52.245-52.245-52.245h-31.347
	v-51.968c0-15.239-12.081-27.703-27.167-28.332V42.543c0-11.359-9.241-20.6-20.599-20.6h-50.754c-11.358,0-20.598,9.241-20.598,20.6
	v34.762c-15.086,0.629-27.167,13.094-27.167,28.332v51.968H151.51c-28.808,0-52.245,23.437-52.245,52.245v58.689H10.449
	c-3.308,0-6.421,1.566-8.392,4.222s-2.567,6.089-1.609,9.255l44.511,146.98c4.898,16.175,15.048,31.386,28.58,42.832
	c13.897,11.756,29.82,18.229,44.836,18.229h298.666c15.016,0,30.938-6.473,44.836-18.228c13.532-11.447,23.683-26.658,28.581-42.832
	l21.095-69.657C512.51,356.173,511.913,352.74,509.943,350.084z M391.837,268.539h-83.592v-35.527h83.592V268.539z M281.078,42.841
	v34.434h-50.155V42.841H281.078z M203.755,105.637c0-4.117,3.348-7.465,7.464-7.465h89.563c4.116,0,7.464,3.348,7.464,7.465v51.968
	H203.755V105.637z M151.51,178.503h208.98c17.285,0,31.347,14.062,31.347,31.347v2.264h-94.041c-5.771,0-10.449,4.678-10.449,10.449
	v56.424c0,5.771,4.678,10.449,10.449,10.449h94.041v56.424H218.603L213.68,329.6c-4.528-14.95-13.549-29.071-25.574-40.164h26.098
	c5.771,0,10.449-4.678,10.449-10.449v-56.424c0-5.771-4.678-10.449-10.449-10.449h-94.041v-2.264
	C120.163,192.565,134.226,178.503,151.51,178.503z M120.163,233.012h83.592v35.527h-83.592V233.012z M470.456,422.939
	c-7.587,25.054-32.048,46.22-53.415,46.22H118.374c-21.367,0-45.828-21.166-53.415-46.22L24.531,289.437h115.733
	c21.367,0,45.828,21.167,53.415,46.22l7.171,23.682c1.334,4.406,5.396,7.421,10.001,7.421H487.47L470.456,422.939z"/>
<path d="M99.605,312.824c-1.352-4.378-5.401-7.366-9.984-7.366H52.005c-3.318,0-6.439,1.576-8.408,4.246
	c-1.97,2.671-2.554,6.116-1.575,9.287l13.933,45.105c1.352,4.378,5.4,7.366,9.984,7.366h37.616c0.007,0,0.014,0,0.021,0
	c5.771,0,10.449-4.678,10.449-10.449c0-1.317-0.243-2.577-0.689-3.737L99.605,312.824z M73.647,350.563l-7.477-24.207h15.743
	l7.477,24.207H73.647z"/>
<path d="M166.478,312.824c-1.352-4.378-5.4-7.366-9.984-7.366h-37.616c-3.318,0-6.439,1.576-8.408,4.246
	c-1.97,2.671-2.554,6.116-1.575,9.287l13.933,45.105c1.352,4.378,5.4,7.366,9.984,7.366h37.616c0.006,0,0.014,0,0.021,0
	c5.771,0,10.449-4.678,10.449-10.449c0-1.317-0.243-2.577-0.689-3.737L166.478,312.824z M140.52,350.563l-7.477-24.207h15.743
	l7.477,24.207H140.52z"/>
<path d="M442.756,410.993H443c5.771,0,10.449-4.679,10.449-10.449s-4.678-10.449-10.449-10.449h-0.245
	c-5.771,0-10.449,4.679-10.449,10.449S436.985,410.993,442.756,410.993z"/>
<path d="M297.01,400.544c0,5.77,4.678,10.449,10.449,10.449h101.492c5.771,0,10.449-4.679,10.449-10.449
	s-4.678-10.449-10.449-10.449H307.459C301.688,390.095,297.01,394.774,297.01,400.544z"/>
</svg>
